<svg width="20pt" height="20pt" viewBox="0 0 20 20" fill="none">
    <path fill-rule="evenodd" clip-rule="evenodd" d="M9.53148 5.41435C9.80539 5.19522 10.1946 5.19522 10.4685 5.41435L15.4685 9.41435C15.792 9.67311 15.8444 10.1451 15.5856 10.4685C15.3269 10.792 14.8549 10.8444 14.5315 10.5857L10 6.96047L5.46852 10.5857C5.14507 10.8444 4.6731 10.792 4.41435 10.4685C4.15559 10.1451 4.20803 9.67311 4.53148 9.41435L9.53148 5.41435Z" fill="#999999"/>
    <path fill-rule="evenodd" clip-rule="evenodd" d="M9.53148 10.4143C9.80539 10.1952 10.1946 10.1952 10.4685 10.4143L15.4685 14.4143C15.792 14.6731 15.8444 15.1451 15.5856 15.4685C15.3269 15.792 14.8549 15.8444 14.5315 15.5857L10 11.9605L5.46852 15.5857C5.14507 15.8444 4.6731 15.792 4.41435 15.4685C4.15559 15.1451 4.20803 14.6731 4.53148 14.4143L9.53148 10.4143Z" fill="#999999"/>
</svg>
